{"title":"QUEEN-Rock Montreal{Live1981}(dvdripmp4)","uid":7807018,"size":1590489996,"categoryP":"video","categoryS":"music_videos","magnet":"?xt=urn:btih:144c69ebd702ecdaddc16c9c0b350ffd361111a1&amp;dn=QUEEN-Rock+Montreal%7BLive1981%7D%28dvdripmp4%29&amp;tr=udp%3A%2F%2Ftracker.openbittorrent.com%3A80&amp;tr=udp%3A%2F%2Fopen.demonii.com%3A1337&amp;tr=udp%3A%2F%2Ftracker.coppersurfer.tk%3A6969&amp;tr=udp%3A%2F%2Fexodus.desync.com%3A6969","seeders":3,"leechers":0,"uploader":"russell887","files":1,"time":1352428655,"description":"Following their record-breaking South American tour, the Montreal shows on 24 and 25 November 1981 were to be the only concerts by Queen ever shot on film - indeed they were the first group to shoot an entire show in full cinema format 35mm. These releases offer the best ever sound and picture quality on a Queen concert release. Always a great live band, with two years non-stop touring behind them and Freddie Mercury in front of them, Queen excelled themselves with the cameras rolling. The footage has been digitally restored from the original film and the sound has been newly mixed and mastered for DTS Surround Sound and PCM Stereo from the original multi-track tapes.\n\n&quot;Hello Montreal...long time no see. You wanna get crazy?&quot; asks Freddie as the band tear into their alternative 'fast' version of We Will Rock You, and from there on Queen show their hard rock roots, slowing down only for Love of My Life and the more mid-tempo Under Pressure, notably being performed live for the first time in this concert. \n\n\nIntro \nWe Will Rock You (Fast) \nLet Me Entertain You \nPlay The Game \nSomebody To Love \nKiller Queen \nI'm In Love With My Car \nGet Down Make Love \nSave Me \nNow I'm Here \nDragon Attack \nNow I'm Here (Reprise) \nLove Of My Life \nUnder Pressure \nKeep Yourself Alive \nDrum And Tympani Solo \nGuitar Solo \nCrazy Little Thing Called Love \nJailhouse Rock \nBohemian Rhapsody \nTie Your Mother Down \nAnother One Bites The Dust \nSheer Heart Attack \nWe Will Rock You \nWe Are The Champions \nGod Save The Queen \n\nINFO:\nFormat                                   : MPEG-4\nFormat profile                           : Base Media\nCodec ID                                 : isom\nFile size                                : 1.48 GiB\nDuration                                 : 1h 35mn\nOverall bit rate mode                    : Variable\nOverall bit rate                         : 2 225 Kbps\nWriting application                      : Lavf52.104.0\n\nVideo\nID                                       : 1\nFormat                                   : MPEG-4 Visual\nFormat profile                           : Simple@L3\nFormat settings, BVOP                    : No\nFormat settings, QPel                    : No\nFormat settings, GMC                     : No warppoints\nFormat settings, Matrix                  : Default (H.263)\nCodec ID                                 : 20\nDuration                                 : 1h 35mn\nBit rate                                 : 2 052 Kbps\nWidth                                    : 720 pixels\nHeight                                   : 480 pixels\nDisplay aspect ratio                     : 16:9\nOriginal display aspect ratio            : 16:9\nFrame rate mode                          : Constant\nFrame rate                               : 29.970 fps\nStandard                                 : NTSC\nColor space                              : YUV\nChroma subsampling                       : 4:2:0\nBit depth                                : 8 bits\nScan type                                : Progressive\nCompression mode                         : Lossy\nBits/(Pixel*Frame)                       : 0.198\nStream size                              : 1.37 GiB (92%)\nWriting library                          : XviD 1.2.1 (UTC 2008-12-04)\n\nAudio\nID                                       : 2\nFormat                                   : AAC\nFormat/Info                              : Advanced Audio Codec\nFormat profile                           : LC\nCodec ID                                 : 40\nDuration                                 : 1h 35mn\nBit rate mode                            : Variable\nBit rate                                 : 168 Kbps\nChannel(s)                               : 6 channels\nChannel positions                        : Front: L C R, Side: L R, LFE\nSampling rate                            : 48.0 KHz\nCompression mode                         : Lossy\nStream size                              : 115 MiB (8%)\n\nSIZE: 1.48GB","torrent":{"xt":"urn:btih:144c69ebd702ecdaddc16c9c0b350ffd361111a1","amp;dn":"QUEEN-Rock+Montreal%7BLive1981%7D%28dvdripmp4%29","amp;tr":["udp%3A%2F%2Ftracker.openbittorrent.com%3A80","udp%3A%2F%2Fopen.demonii.com%3A1337","udp%3A%2F%2Ftracker.coppersurfer.tk%3A6969","udp%3A%2F%2Fexodus.desync.com%3A6969"],"infoHash":"144c69ebd702ecdaddc16c9c0b350ffd361111a1","infoHashBuffer":{"type":"Buffer","data":[20,76,105,235,215,2,236,218,221,193,108,156,11,53,15,253,54,17,17,161]},"announce":[],"urlList":[]}}